<?xml version="1.0" standalone="no"?>
<!DOCTYPE svg PUBLIC "-//W3C//DTD SVG 20010904//EN"
 "http://www.w3.org/TR/2001/REC-SVG-20010904/DTD/svg10.dtd">
<svg version="1.0" xmlns="http://www.w3.org/2000/svg"
 width="3086.000000pt" height="3086.000000pt" viewBox="0 0 3086.000000 3086.000000"
 preserveAspectRatio="xMidYMid meet">
<metadata>
Created by potrace 1.14, written by Peter Selinger 2001-2017
</metadata>
<g transform="translate(0.000000,3086.000000) scale(0.100000,-0.100000)"
fill="#000000" stroke="none">
<path d="M6450 29890 c0 -5 5 -10 11 -10 5 0 7 5 4 10 -3 6 -8 10 -11 10 -2 0
-4 -4 -4 -10z"/>
<path d="M6512 29889 c5 -12 -3 -15 -41 -14 -26 1 -53 5 -60 10 -10 5 -12 4
-7 -3 4 -7 2 -12 -3 -12 -6 0 -11 5 -11 10 0 6 -5 10 -11 10 -5 0 -8 -4 -5 -8
6 -10 -50 -9 -60 1 -4 4 -12 7 -18 7 -6 0 -4 -5 4 -10 11 -7 8 -9 -15 -8 -16
1 -35 6 -42 10 -7 6 -14 4 -19 -3 -4 -8 -3 -9 4 -5 7 4 12 3 12 -3 0 -6 -12
-8 -32 -4 -22 4 -29 3 -24 -5 4 -7 2 -12 -3 -12 -6 0 -11 6 -11 13 0 8 -4 7
-10 -3 -6 -9 -10 -10 -10 -3 0 16 -42 7 -56 -11 -9 -12 -12 -12 -22 2 -7 9
-10 11 -7 5 3 -7 1 -13 -5 -13 -6 0 -9 -4 -5 -9 3 -6 -6 -6 -25 -1 -19 6 -28
5 -24 -1 3 -6 -5 -8 -21 -5 -20 4 -24 2 -16 -7 7 -9 5 -13 -9 -13 -10 0 -17 3
-15 6 6 9 -28 6 -43 -4 -7 -4 -10 -11 -7 -16 3 -4 -5 -6 -17 -2 -14 3 -19 1
-14 -6 5 -8 1 -10 -10 -5 -10 4 -20 0 -25 -9 -5 -10 -21 -14 -43 -13 -20 1
-34 -3 -33 -9 1 -6 -4 -10 -10 -8 -7 1 -13 -6 -13 -15 0 -10 -4 -14 -8 -8 -4
6 -15 11 -25 11 -15 2 -16 -1 -5 -14 10 -12 10 -14 1 -8 -8 4 -13 2 -13 -6 0
-9 -3 -9 -10 2 -8 12 -10 12 -11 -5 l0 -20 -9 20 c-8 18 -9 18 -10 -5 -1 -14
-4 -19 -7 -12 -2 6 -9 12 -14 12 -4 0 -6 -7 -3 -15 5 -11 2 -13 -12 -8 -13 5
-15 3 -9 -7 5 -8 4 -11 -3 -6 -6 3 -17 -1 -25 -9 -19 -18 -31 -20 -22 -2 4 6
-3 2 -14 -11 -11 -13 -25 -21 -31 -17 -6 4 -10 3 -9 -2 3 -20 -2 -27 -11 -13
-8 13 -10 12 -11 -5 -1 -11 -1 -24 0 -29 1 -5 -4 -4 -12 3 -12 9 -16 8 -21 -5
-3 -9 -13 -14 -21 -11 -9 4 -12 1 -9 -7 3 -8 -4 -16 -16 -19 -14 -3 -19 -10
-15 -17 6 -9 2 -9 -14 -1 -17 10 -20 9 -14 -4 4 -11 -1 -18 -16 -22 -11 -3
-21 -11 -21 -19 0 -7 -5 -16 -12 -20 -7 -5 -8 -3 -3 6 6 9 4 11 -4 6 -7 -5
-10 -14 -7 -22 3 -7 0 -16 -6 -20 -7 -4 -8 -3 -4 4 4 7 2 12 -4 12 -7 0 -14
-9 -17 -21 -4 -16 -8 -17 -14 -7 -7 10 -9 8 -9 -6 0 -12 -5 -16 -16 -12 -8 3
-13 2 -9 -3 8 -15 -6 -41 -22 -41 -10 0 -13 -6 -9 -16 6 -15 4 -15 -11 -3 -14
12 -16 12 -12 -1 3 -8 -6 -26 -20 -40 -13 -14 -20 -19 -16 -11 5 9 4 12 -3 7
-7 -4 -12 -14 -12 -22 0 -10 -5 -12 -12 -8 -9 5 -8 2 1 -9 8 -10 11 -20 7 -24
-3 -3 -6 -1 -6 5 0 7 -5 12 -11 12 -5 0 -7 -4 -4 -10 3 -5 1 -10 -5 -10 -6 0
-8 -5 -4 -12 5 -7 2 -9 -9 -5 -12 4 -15 1 -12 -14 3 -16 0 -19 -12 -15 -13 5
-14 4 -3 -9 11 -13 10 -14 -4 -9 -12 4 -16 0 -16 -16 0 -11 -4 -18 -10 -15 -5
3 -10 -1 -10 -9 0 -9 -5 -16 -11 -16 -8 0 -7 -5 1 -15 11 -13 10 -14 -2 -10
-8 3 -21 -2 -29 -12 -13 -16 -12 -17 4 -4 15 12 17 12 11 -2 -3 -8 -12 -18
-20 -21 -8 -3 -14 -12 -14 -20 0 -9 -9 -24 -21 -35 -15 -14 -17 -21 -8 -26 8
-6 10 -4 4 5 -5 9 -4 11 3 6 15 -9 15 -11 -5 -27 -11 -9 -14 -10 -9 -2 5 9 2
11 -9 7 -12 -5 -13 -10 -6 -17 13 -13 15 -30 2 -23 -4 3 -14 -13 -21 -34 -7
-22 -17 -40 -22 -40 -4 0 -8 -5 -8 -11 0 -5 5 -7 12 -3 7 4 8 3 4 -4 -4 -7
-15 -12 -24 -12 -10 0 -13 -3 -7 -8 16 -12 17 -35 1 -29 -15 6 -16 -9 -3 -30
6 -9 3 -11 -10 -6 -16 6 -17 5 -3 -12 11 -14 12 -17 1 -11 -9 6 -12 5 -9 -5 3
-8 -2 -20 -11 -27 -9 -8 -11 -11 -5 -8 6 3 11 -1 11 -8 0 -8 -7 -12 -15 -9
-12 5 -12 2 -4 -14 9 -15 8 -25 -3 -39 -17 -23 -20 -48 -3 -38 7 5 8 3 4 -5
-5 -7 -13 -10 -20 -8 -7 3 -11 -8 -12 -29 -1 -18 3 -31 7 -28 17 10 9 -5 -13
-27 -13 -12 -18 -19 -11 -15 21 12 26 -15 6 -34 -19 -17 -20 -33 -20 -244 -1
-199 1 -226 15 -226 13 0 13 -2 -3 -13 -14 -11 -15 -16 -5 -22 9 -5 11 -4 6 3
-4 7 -1 12 6 12 15 0 17 -48 4 -69 -5 -7 -1 -8 10 -4 14 5 15 3 5 -15 -9 -17
-9 -22 1 -22 9 0 9 -3 0 -12 -10 -10 -7 -15 10 -26 19 -11 20 -12 3 -8 -20 6
-20 6 -1 -9 18 -13 18 -15 3 -15 -15 0 -16 -2 -5 -14 7 -8 16 -12 19 -10 3 2
6 -3 6 -11 0 -8 -4 -12 -9 -9 -4 3 -8 0 -8 -5 0 -6 4 -11 9 -11 6 0 8 -9 6
-21 -3 -15 0 -19 10 -15 11 4 12 0 4 -21 -7 -20 -7 -24 4 -20 8 3 14 -1 14 -9
0 -8 -4 -14 -9 -14 -4 0 0 -8 9 -18 12 -12 21 -14 25 -8 5 7 8 5 8 -4 0 -13 1
-13 10 0 8 12 10 12 16 -3 4 -10 13 -16 20 -13 8 3 14 1 14 -4 0 -6 -8 -10
-17 -10 -15 0 -16 -2 -3 -9 8 -6 19 -7 25 -3 5 3 4 -2 -4 -11 -12 -15 -11 -17
3 -17 10 0 14 -5 10 -11 -3 -6 0 -15 7 -20 11 -7 11 -9 1 -9 -7 0 -10 -5 -7
-10 4 -6 1 -9 -6 -8 -8 2 -14 -10 -16 -30 -2 -23 1 -31 9 -26 6 4 8 3 4 -4 -3
-6 -1 -14 5 -17 5 -4 8 -13 5 -20 -3 -8 3 -19 12 -27 16 -12 16 -11 2 7 -14
19 -14 19 3 6 11 -9 14 -18 8 -25 -10 -12 11 -50 22 -39 4 3 7 -1 7 -10 0 -10
5 -17 10 -17 6 0 10 -8 10 -19 0 -10 11 -30 24 -44 13 -14 21 -29 17 -34 -3
-4 2 -1 11 6 15 11 17 10 13 -8 -2 -12 1 -21 6 -21 6 0 7 -4 4 -10 -3 -5 1
-10 9 -10 10 0 16 -9 16 -21 0 -19 2 -20 17 -8 9 8 14 9 10 3 -9 -15 22 -56
39 -50 8 3 13 2 12 -2 -1 -4 3 -17 10 -28 6 -12 8 -24 4 -28 -3 -4 1 -4 10 -1
18 7 43 -26 30 -41 -4 -5 1 -2 11 6 16 11 18 11 15 -1 -2 -8 -7 -18 -13 -22
-5 -5 0 -5 13 -2 17 5 22 2 22 -12 0 -15 2 -16 10 -3 7 10 10 11 11 3 1 -7 2
-19 3 -25 1 -7 10 -12 20 -10 11 2 15 -1 11 -7 -3 -6 1 -11 9 -11 9 0 16 -5
16 -11 0 -5 4 -7 10 -4 6 4 7 -1 3 -12 -6 -16 -5 -16 11 -4 9 8 16 10 15 5 -3
-18 1 -37 8 -31 3 4 13 -2 21 -14 8 -11 20 -18 26 -16 7 3 23 -4 37 -14 13
-10 31 -19 39 -20 10 0 11 -2 3 -6 -7 -2 -13 -9 -13 -14 0 -4 7 -5 17 -2 12 5
14 3 8 -8 -7 -12 -6 -12 11 1 10 8 16 11 12 6 -12 -15 21 -38 47 -33 19 3 23
1 15 -8 -12 -15 3 -23 37 -20 13 1 21 -1 18 -3 -7 -8 28 -31 46 -32 9 0 19 -6
22 -14 3 -7 16 -12 31 -11 19 2 23 -1 19 -13 -4 -10 -2 -13 6 -8 6 4 18 2 26
-4 8 -7 22 -10 30 -6 10 3 13 2 10 -4 -4 -7 3 -9 20 -6 20 4 25 2 21 -9 -3 -8
0 -17 6 -21 7 -4 8 -3 4 4 -4 7 -1 12 8 12 9 0 16 -5 16 -11 0 -8 5 -8 15 1
12 10 15 10 15 0 0 -8 3 -10 7 -7 3 4 15 0 25 -10 10 -9 18 -13 18 -9 0 4 10
2 22 -5 18 -10 20 -9 14 7 -5 17 -5 17 6 3 7 -9 19 -14 27 -11 10 3 11 0 5 -9
-7 -12 -5 -12 9 0 12 9 17 10 17 2 0 -7 5 -9 13 -4 18 11 38 13 31 2 -3 -5
-10 -6 -16 -3 -7 4 -8 2 -4 -4 5 -9 13 -9 26 -2 13 7 21 7 26 -1 4 -8 9 -7 15
2 7 11 9 11 9 1 0 -8 9 -11 25 -8 13 3 27 0 31 -5 3 -6 12 -5 22 3 9 8 13 8 9
2 -4 -7 0 -15 9 -18 9 -4 13 -2 8 5 -4 8 1 9 16 4 15 -5 20 -4 16 4 -4 6 -2
11 3 11 6 0 11 -5 11 -11 0 -6 9 -8 20 -4 12 4 20 2 20 -5 0 -6 -5 -8 -12 -4
-7 5 -8 3 -3 -6 7 -11 12 -9 23 8 8 12 20 22 26 22 6 0 4 -5 -4 -10 -12 -8
-11 -10 6 -10 11 0 25 5 32 12 9 9 12 9 12 0 0 -8 17 -12 46 -12 33 0 43 -3
39 -12 -4 -7 -1 -6 7 3 7 9 19 14 27 11 9 -3 11 0 6 8 -6 10 -4 11 6 4 20 -12
38 -14 45 -3 3 5 11 9 17 9 7 0 6 -4 -3 -10 -11 -7 -5 -9 23 -8 20 1 37 6 37
12 0 6 4 5 9 -2 4 -8 12 -14 16 -14 4 0 12 6 16 14 7 10 9 10 9 0 0 -7 5 -10
10 -7 6 3 10 1 10 -5 0 -7 -7 -9 -16 -6 -8 3 -12 2 -9 -3 3 -6 14 -9 24 -8 13
1 17 7 14 22 -4 15 -2 17 5 6 8 -11 16 -11 41 -3 17 6 33 7 36 2 6 -9 24 -8
43 3 6 5 18 5 25 0 17 -11 30 -11 46 1 11 8 13 8 7 -1 -5 -9 -2 -11 8 -7 9 3
13 11 10 18 -3 6 2 2 10 -8 9 -11 16 -15 16 -9 0 15 35 22 51 11 10 -7 9 -8
-6 -3 -15 5 -17 3 -8 -6 12 -12 37 -3 28 11 -3 5 -1 11 5 15 5 3 10 1 10 -6 0
-7 7 -4 16 7 8 10 13 14 10 8 -3 -7 1 -15 10 -18 9 -4 13 -2 8 5 -5 8 4 10 29
7 25 -3 33 -1 27 7 -6 7 -2 11 11 12 12 1 17 -3 13 -10 -3 -7 4 -1 16 13 18
20 21 21 16 6 -7 -20 -7 -20 15 0 14 11 19 13 14 4 -7 -13 -6 -13 7 -2 13 10
17 10 21 0 3 -7 6 -2 7 12 1 14 4 19 7 12 4 -10 8 -10 19 -1 8 6 25 9 39 7 22
-5 23 -3 13 10 -11 13 -11 14 0 8 7 -4 19 -1 26 7 8 8 27 13 41 12 17 -2 30 3
37 15 10 15 16 17 32 8 19 -10 19 -9 8 5 -11 13 -10 15 12 13 14 -2 23 0 21 5
-9 14 15 21 30 9 18 -15 20 1 3 19 -11 11 -9 12 7 3 24 -12 64 15 57 38 -4 12
-2 13 9 3 10 -8 20 -9 29 -3 13 9 13 10 0 10 -12 1 -11 3 3 11 9 5 22 7 27 4
6 -3 10 -1 10 5 0 6 5 8 13 4 7 -5 6 0 -3 11 -14 17 -14 18 8 6 12 -6 22 -8
21 -4 -3 19 2 33 12 33 5 0 7 -6 3 -12 -5 -9 -3 -9 9 1 9 7 14 18 10 24 -4 6
2 8 15 5 14 -4 19 -2 16 7 -3 7 0 16 7 21 8 5 10 3 4 -7 -4 -8 6 1 22 19 17
18 33 29 34 25 2 -5 13 0 23 11 17 17 17 19 2 13 -10 -4 -15 -3 -11 3 3 6 13
10 21 10 8 0 12 4 9 10 -4 6 1 7 11 3 13 -5 15 -3 9 7 -6 10 -4 12 8 7 11 -4
14 -2 11 7 -3 8 7 19 24 27 20 8 28 18 24 28 -4 10 -1 12 8 6 10 -6 12 -4 7 8
-4 12 -1 15 14 12 18 -4 19 -2 8 13 -7 9 -9 14 -5 10 5 -5 16 1 23 12 8 11 18
18 22 16 4 -3 8 5 8 16 1 12 7 26 13 32 8 8 9 6 4 -9 -7 -17 -6 -18 8 -5 9 8
16 17 15 20 -1 3 3 16 7 29 7 19 10 21 18 10 7 -10 8 -8 5 9 -4 17 -1 22 14
22 10 0 19 5 19 10 0 6 -6 10 -12 10 -9 0 -8 3 2 9 8 6 19 7 25 3 5 -3 3 3 -5
13 -8 10 -10 16 -5 13 6 -3 15 0 22 7 10 11 10 15 0 18 -7 3 -4 6 6 6 9 1 16
4 16 9 -1 4 0 10 1 15 1 4 3 12 4 19 0 6 8 13 16 15 13 4 13 3 0 -7 -12 -9
-12 -11 -1 -8 8 2 15 12 17 22 1 10 7 23 13 29 6 6 11 16 11 22 0 5 -7 1 -15
-9 -8 -11 -15 -15 -15 -8 0 6 9 18 21 26 12 8 18 19 15 25 -4 5 -1 13 5 16 5
4 8 13 5 21 -3 8 0 13 7 11 7 -1 11 8 11 21 -1 17 1 20 12 11 10 -8 12 -6 9 9
-2 12 3 23 12 26 14 6 14 8 -1 25 -16 18 -16 19 1 17 11 0 18 5 17 17 -1 9 3
17 10 17 6 0 4 5 -4 10 -10 6 -11 10 -2 10 6 0 12 9 12 19 0 11 7 27 16 35 12
12 12 16 2 16 -10 0 -10 2 1 9 8 5 11 16 8 25 -4 9 -3 16 2 16 10 0 8 31 -3
49 -7 11 -4 11 15 0 22 -11 23 -11 10 4 -10 13 -10 17 -1 17 9 0 9 4 -1 17
-12 14 -12 15 0 9 10 -7 12 -3 6 14 -5 17 -4 21 6 15 11 -6 12 -5 2 6 -17 17
-17 33 0 26 7 -3 13 3 13 13 0 10 -4 17 -7 14 -4 -2 -10 0 -14 6 -3 5 1 10 11
10 14 0 15 2 3 17 -8 9 -9 14 -3 11 7 -5 11 51 12 174 1 156 -1 184 -15 200
-9 10 -11 18 -5 18 6 0 13 -6 15 -12 3 -7 5 -1 4 15 -1 20 -6 26 -16 22 -10
-4 -9 1 4 15 14 15 15 19 4 15 -10 -4 -16 0 -16 9 0 8 4 13 9 10 4 -3 8 0 8 5
0 6 -5 11 -12 11 -6 0 -3 9 8 21 12 13 14 19 5 17 -16 -3 -28 33 -26 74 1 15
-2 25 -7 22 -4 -3 -6 -9 -3 -14 3 -5 1 -11 -4 -15 -6 -3 -8 4 -6 16 3 13 -1
29 -8 38 -9 12 -9 13 1 7 6 -4 12 -2 12 3 0 6 -6 11 -12 11 -9 0 -8 4 2 10 10
6 11 10 3 10 -7 0 -13 9 -13 20 0 11 -6 20 -12 20 -9 0 -8 4 2 10 12 8 12 10
1 10 -9 0 -12 9 -9 29 2 17 2 30 -1 29 -3 0 -13 0 -21 1 -13 1 -13 2 0 11 11
7 12 10 2 10 -9 0 -11 7 -7 20 6 19 -3 25 -28 21 -5 -1 -6 3 -2 9 3 6 12 8 18
4 7 -3 4 1 -6 9 -10 8 -17 19 -16 23 4 26 -1 36 -15 25 -11 -9 -12 -6 -8 15 3
18 1 25 -6 20 -7 -4 -10 1 -7 14 3 13 -2 20 -13 21 -11 0 -13 2 -4 6 9 4 7 10
-8 23 -15 13 -17 19 -8 23 7 3 4 6 -7 6 -17 1 -17 3 -5 11 13 8 13 10 -1 10
-9 0 -23 8 -30 18 -13 15 -12 16 4 3 15 -12 17 -12 11 3 -3 9 -10 16 -15 16
-5 0 -9 8 -9 18 0 20 -45 64 -55 54 -3 -4 -3 1 1 11 4 11 1 17 -9 17 -8 0 -17
13 -20 30 -4 18 -13 30 -22 30 -9 0 -13 5 -10 10 3 6 1 10 -5 10 -7 0 -10 6
-7 14 4 10 0 13 -14 11 -11 -2 -17 0 -14 6 4 5 0 12 -9 15 -9 3 -12 12 -8 22
5 15 4 15 -14 2 -10 -8 -16 -10 -12 -6 4 5 0 15 -10 23 -9 8 -11 12 -4 8 6 -3
12 -2 12 3 0 6 -7 13 -16 16 -8 3 -12 11 -8 17 4 8 3 9 -5 5 -12 -8 -73 49
-62 59 3 3 -2 3 -12 -1 -12 -4 -17 -1 -17 12 0 16 -2 17 -10 4 -8 -12 -10 -10
-10 9 0 13 -3 21 -7 18 -3 -4 -13 2 -21 14 -10 15 -17 17 -27 9 -10 -9 -13 -7
-10 7 4 27 -5 35 -23 21 -13 -11 -15 -10 -9 4 3 10 1 20 -5 24 -7 4 -8 3 -4
-4 14 -23 -6 -12 -34 18 -19 20 -30 26 -33 18 -4 -10 -6 -10 -6 0 -1 7 -5 10
-11 7 -5 -3 -10 1 -10 9 0 14 -12 20 -32 17 -5 0 -8 4 -8 10 0 5 -5 7 -12 3
-8 -5 -9 -2 -4 12 4 10 4 15 0 11 -4 -4 -19 0 -33 10 -24 15 -25 15 -12 0 12
-15 12 -17 -3 -11 -9 3 -16 12 -16 19 0 9 -8 12 -20 10 -11 -2 -19 -1 -16 3
12 21 -53 39 -67 19 -5 -7 -5 -1 -1 13 3 14 3 22 -1 17 -5 -4 -16 0 -26 9 -13
12 -19 12 -25 3 -5 -8 -3 -10 6 -4 9 5 11 4 6 -3 -8 -13 -56 13 -56 30 0 7 -5
6 -13 -1 -15 -12 -27 -6 -23 12 2 7 1 9 -1 5 -7 -11 -33 -10 -33 1 0 6 -8 9
-17 9 -26 -1 -46 5 -62 21 -12 11 -17 10 -29 -5 -13 -18 -14 -18 -7 4 6 22 5
23 -17 11 -26 -14 -26 -14 -52 9 -11 9 -17 12 -13 6 4 -7 -2 -10 -16 -9 -37 4
-38 5 -32 14 3 5 0 13 -6 17 -7 4 -9 3 -6 -3 4 -6 0 -14 -9 -17 -24 -9 -28 -7
-16 7 9 11 4 13 -28 10 -24 -2 -40 1 -40 8 0 5 -5 7 -10 4 -6 -4 -8 -11 -5
-16 3 -5 -1 -6 -9 -3 -9 3 -13 11 -9 18 4 6 -1 5 -10 -3 -13 -10 -17 -11 -17
-1 0 9 -7 7 -21 -6 -11 -10 -20 -14 -19 -9 2 6 2 17 1 25 -1 13 -3 13 -10 1
-5 -8 -17 -16 -25 -17 -9 -1 -14 2 -10 7 6 10 -9 12 -20 2 -10 -10 -46 -11
-40 -1 8 13 -10 10 -25 -4 -12 -11 -13 -10 -7 6 7 20 7 20 -15 0 -17 -15 -21
-15 -17 -3 4 9 1 16 -8 16 -7 0 -11 -4 -8 -9 3 -4 1 -8 -5 -8 -5 0 -13 5 -16
11 -5 7 -14 4 -28 -8 -11 -10 -17 -13 -14 -7 4 7 0 15 -9 18 -8 3 -12 2 -9 -4
9 -14 -8 -12 -24 3 -11 10 -13 9 -9 -3 8 -21 -52 -21 -77 0 -11 9 -16 10 -11
3 4 -7 3 -13 -1 -13 -5 0 -15 6 -22 13 -11 10 -13 9 -9 -4z m-378 -37 c3 -5
-1 -9 -9 -9 -8 0 -12 4 -9 9 3 4 7 8 9 8 2 0 6 -4 9 -8z m2164 -757 c-3 -3 -9
2 -12 12 -6 14 -5 15 5 6 7 -7 10 -15 7 -18z m-3568 -715 c0 -5 -5 -10 -11
-10 -5 0 -7 5 -4 10 3 6 8 10 11 10 2 0 4 -4 4 -10z m-3 -425 c0 -8 -4 -12 -9
-9 -5 3 -6 10 -3 15 9 13 12 11 12 -6z m238 -703 c-3 -3 -11 0 -18 7 -9 10 -8
11 6 5 10 -3 15 -9 12 -12z m65 -106 c0 -6 -7 -1 -15 10 -8 10 -15 23 -15 28
0 6 7 1 15 -10 8 -10 15 -23 15 -28z m2670 -510 c0 -3 -4 -8 -10 -11 -5 -3
-10 -1 -10 4 0 6 5 11 10 11 6 0 10 -2 10 -4z m-1670 -160 c0 -3 -4 -8 -10
-11 -5 -3 -10 -1 -10 4 0 6 5 11 10 11 6 0 10 -2 10 -4z"/>
<path d="M6570 29890 c0 -5 5 -10 11 -10 5 0 7 5 4 10 -3 6 -8 10 -11 10 -2 0
-4 -4 -4 -10z"/>
<path d="M7157 29873 c-10 -9 -9 -23 1 -23 5 0 9 7 9 15 0 17 -1 18 -10 8z"/>
<path d="M7216 29852 c-3 -5 1 -9 9 -9 8 0 12 4 9 9 -3 4 -7 8 -9 8 -2 0 -6
-4 -9 -8z"/>
<path d="M8426 27414 c-5 -14 -4 -15 9 -4 17 14 19 20 6 20 -5 0 -12 -7 -15
-16z"/>
<path d="M11100 27228 c0 -12 -5 -15 -17 -11 -12 5 -14 3 -8 -7 6 -10 4 -10
-10 -3 -10 6 -26 8 -36 6 -11 -3 -19 0 -19 6 0 8 -4 8 -14 -1 -8 -7 -12 -17
-9 -22 3 -4 -7 0 -23 10 -15 11 -25 14 -21 7 10 -17 -31 -27 -49 -12 -12 10
-13 9 -8 -5 5 -13 1 -15 -25 -10 -20 4 -31 3 -31 -5 0 -6 -5 -11 -11 -11 -5 0
-7 5 -4 11 4 6 -2 5 -13 -2 -12 -7 -18 -17 -15 -23 3 -5 1 -6 -6 -2 -6 4 -20
2 -29 -5 -12 -10 -11 -7 3 11 14 18 15 21 3 11 -9 -7 -23 -9 -29 -5 -7 4 -9 3
-5 -4 3 -6 2 -13 -4 -17 -5 -3 -10 -1 -10 4 0 6 -5 11 -12 11 -6 0 -8 -3 -5
-7 4 -3 -1 -12 -11 -19 -13 -9 -20 -10 -31 -1 -11 9 -13 9 -8 1 4 -7 0 -15 -9
-18 -8 -3 -13 -2 -10 2 11 19 -34 9 -51 -11 l-18 -22 23 19 c12 11 24 17 27
14 3 -3 -5 -12 -19 -21 -13 -9 -27 -13 -30 -10 -12 13 -35 11 -30 -2 3 -7 0
-16 -7 -21 -7 -4 -10 -3 -5 4 4 6 -1 10 -13 9 -11 0 -17 -6 -14 -14 3 -8 -2
-11 -16 -8 -14 3 -21 -1 -21 -12 0 -13 -3 -13 -15 -3 -13 10 -19 10 -35 -5
-11 -10 -17 -23 -13 -29 4 -6 -1 -5 -10 3 -15 12 -17 12 -10 -4 5 -14 3 -17
-10 -12 -12 4 -17 1 -17 -11 0 -15 -2 -15 -10 -2 -8 13 -10 13 -10 -2 0 -10
-5 -15 -13 -12 -7 2 -21 -3 -32 -12 -11 -8 -13 -13 -5 -9 8 4 4 -3 -10 -14
-14 -11 -30 -19 -37 -16 -7 2 -15 -5 -18 -16 -5 -16 -9 -18 -21 -8 -12 10 -13
9 -8 -5 5 -12 2 -15 -10 -10 -12 5 -19 0 -23 -15 -3 -11 -9 -18 -14 -15 -5 3
-9 -2 -9 -10 0 -15 -12 -21 -34 -17 -5 1 -6 -5 -3 -13 4 -9 3 -15 -1 -15 -19
3 -33 -2 -28 -10 3 -5 -7 -14 -24 -19 -22 -8 -28 -16 -25 -32 3 -18 2 -20 -10
-10 -8 7 -16 10 -16 6 -1 -3 -3 -10 -4 -16 -1 -5 -3 -15 -4 -21 0 -5 -5 -8
-10 -5 -5 3 -12 -1 -15 -10 -3 -8 -10 -12 -16 -9 -5 3 -7 0 -4 -8 3 -9 -3 -17
-17 -20 -14 -4 -20 -11 -16 -21 4 -10 1 -16 -8 -16 -8 0 -15 -5 -15 -11 0 -5
-4 -8 -9 -5 -7 5 -21 -16 -23 -34 -1 -16 -21 -40 -33 -40 -8 0 -15 -4 -15 -10
0 -5 6 -10 13 -10 8 0 7 -3 -3 -9 -8 -6 -18 -7 -22 -5 -4 3 -5 -3 -1 -12 4
-12 3 -15 -5 -10 -7 4 -12 2 -12 -4 0 -6 -5 -8 -12 -4 -7 4 -8 3 -4 -5 4 -6
13 -8 19 -4 7 4 6 0 -2 -10 -7 -9 -18 -14 -25 -10 -6 4 -5 -1 3 -10 12 -15 12
-17 -3 -11 -12 5 -15 2 -10 -10 3 -9 2 -16 -4 -16 -5 0 -12 -9 -15 -21 -4 -14
-10 -18 -19 -13 -10 6 -11 5 -1 -7 8 -10 9 -19 1 -29 -8 -12 -9 -12 -4 3 3 10
2 16 -3 13 -5 -3 -11 -19 -15 -36 -4 -22 -10 -29 -18 -24 -8 5 -7 0 2 -11 14
-17 13 -18 -3 -12 -15 6 -16 4 -6 -16 11 -19 10 -20 -3 -9 -14 11 -15 8 -13
-18 2 -25 0 -28 -11 -19 -12 10 -13 8 -8 -6 6 -14 4 -16 -7 -10 -12 8 -12 6 0
-8 9 -12 10 -17 2 -17 -7 0 -9 -4 -6 -10 3 -5 2 -10 -4 -10 -6 0 -7 -7 -4 -17
4 -11 3 -14 -6 -9 -6 4 -11 4 -10 -1 4 -26 -2 -44 -13 -37 -10 6 -10 4 0 -8
10 -13 10 -17 -3 -22 -13 -4 -14 -10 -5 -26 6 -11 7 -20 3 -19 -21 3 -24 -2
-12 -18 10 -11 10 -14 2 -9 -9 5 -13 -1 -13 -19 0 -15 -4 -24 -10 -20 -5 3
-10 1 -10 -4 0 -6 5 -11 11 -11 5 0 7 -4 4 -10 -3 -5 -1 -10 6 -10 7 0 9 -3 6
-6 -4 -4 -14 -1 -24 7 -11 9 -14 10 -9 2 13 -22 16 -54 4 -47 -6 4 -9 1 -6 -7
3 -8 -2 -23 -11 -34 -15 -18 -15 -19 2 -6 17 13 17 12 12 -20 -3 -18 -8 -35
-10 -38 -3 -2 1 -11 8 -19 8 -11 8 -14 0 -9 -6 4 -13 4 -16 0 -2 -5 -2 -2 -1
5 2 6 -1 12 -6 12 -5 0 -9 -11 -8 -24 1 -14 6 -22 10 -20 4 3 8 0 8 -5 0 -6
-4 -11 -10 -11 -6 0 -10 -58 -10 -155 0 -117 3 -155 13 -155 8 0 9 -3 1 -8
-15 -10 -14 -35 3 -50 10 -10 13 -10 13 -1 0 7 3 10 6 6 3 -3 2 -12 -2 -19
-13 -19 -13 -98 0 -91 5 4 7 0 3 -10 -3 -9 -1 -18 6 -21 9 -3 9 -5 0 -5 -7 -1
-10 -8 -7 -16 5 -13 9 -13 23 -3 12 10 11 7 -2 -9 -13 -15 -15 -22 -6 -25 7
-2 12 -18 12 -36 0 -20 4 -29 11 -25 6 4 5 0 -2 -9 -10 -13 -10 -18 -1 -24 8
-5 9 -3 4 7 -7 12 -6 12 7 1 16 -13 21 -52 8 -52 -4 0 -7 -6 -7 -14 0 -8 6
-12 15 -8 10 3 13 1 8 -6 -4 -7 -2 -12 5 -12 8 0 8 -5 -2 -17 -7 -10 -9 -15
-5 -11 5 4 15 3 23 -3 7 -6 13 -7 13 -2 0 5 9 9 19 9 11 0 19 -3 18 -6 -2 -12
15 -70 24 -75 5 -4 6 2 3 12 -4 13 -3 14 3 5 8 -11 9 -33 4 -74 -1 -5 -9 -8
-18 -8 -14 0 -15 -2 -4 -9 9 -6 10 -11 2 -15 -6 -4 -11 -12 -11 -17 0 -6 5 -7
12 -3 7 5 9 2 5 -9 -4 -12 -2 -14 10 -10 10 4 14 2 10 -4 -3 -5 3 -19 13 -31
23 -24 26 -36 8 -27 -7 4 -4 -1 6 -9 11 -9 14 -16 7 -16 -7 0 -10 -4 -6 -10 3
-5 12 -7 20 -3 11 4 13 1 9 -11 -4 -10 0 -18 11 -22 13 -6 14 -9 3 -16 -9 -7
-8 -9 7 -5 20 4 24 -4 28 -60 0 -7 4 -10 8 -7 4 2 18 -6 31 -18 13 -13 15 -16
4 -8 -19 15 -19 15 0 -11 10 -15 23 -24 28 -21 5 3 7 -2 3 -11 -5 -12 -1 -17
13 -17 10 0 22 -5 26 -12 4 -7 3 -8 -4 -4 -7 4 -12 4 -12 0 0 -9 41 -44 52
-44 5 0 7 -3 5 -7 -7 -11 19 -33 29 -25 4 4 5 -1 1 -10 -6 -17 17 -33 34 -22
5 3 9 2 8 -3 -4 -22 3 -31 26 -37 14 -4 25 -11 25 -17 0 -14 26 -39 41 -39 7
0 10 -3 6 -6 -3 -3 0 -12 6 -19 9 -10 15 -10 26 -1 12 8 13 8 7 -1 -4 -8 -2
-13 4 -13 6 0 9 -4 6 -8 -2 -4 5 -14 17 -22 19 -12 20 -11 10 2 -10 12 -10 15
0 15 8 0 14 -6 15 -14 1 -7 3 -19 4 -26 1 -9 10 -12 26 -9 19 4 23 2 17 -8 -6
-10 -3 -12 13 -8 15 4 19 2 15 -8 -5 -13 14 -20 41 -15 5 1 6 -5 3 -13 -4 -11
-1 -13 10 -9 12 5 14 3 8 -7 -6 -10 -3 -12 13 -8 12 4 25 1 29 -4 4 -7 1 -8
-7 -3 -9 5 -11 4 -6 -3 4 -7 13 -12 21 -12 7 0 16 -6 18 -12 4 -10 6 -10 6 0
1 10 4 10 15 0 8 -7 12 -17 9 -21 -3 -5 5 -3 18 3 13 7 21 9 17 5 -7 -8 28
-40 44 -40 3 0 10 -3 14 -7 4 -4 13 -3 21 3 10 9 13 8 13 0 0 -7 5 -9 10 -6 6
3 10 -1 10 -11 0 -14 2 -15 17 -3 9 8 14 9 10 3 -4 -7 0 -14 8 -18 8 -3 15 0
15 6 0 7 6 4 13 -7 8 -10 19 -15 25 -11 7 4 12 2 12 -4 0 -6 5 -8 10 -5 6 3
10 0 10 -7 0 -9 3 -9 10 2 5 8 10 10 10 3 0 -6 13 -10 29 -9 16 1 29 -2 28 -7
-1 -5 4 -12 12 -15 9 -3 11 0 6 9 -5 8 2 5 15 -6 13 -11 20 -14 16 -7 -9 16 6
16 22 0 15 -15 44 -17 54 -3 5 6 8 5 8 -2 0 -7 7 -13 16 -13 8 0 13 -4 10 -8
-2 -4 8 -7 22 -6 15 1 27 3 27 4 0 1 8 3 18 5 9 2 17 -2 17 -8 0 -7 5 -5 10 3
6 10 10 11 10 3 0 -7 9 -13 21 -13 13 0 18 4 13 13 -4 6 1 5 12 -4 19 -16 49
-15 39 1 -3 5 8 4 25 -1 23 -9 34 -8 47 2 13 11 15 11 9 1 -6 -9 -1 -12 16
-10 12 2 29 7 37 12 9 6 12 5 8 0 -3 -6 33 -10 90 -11 62 -1 98 -5 103 -13 5
-8 9 -4 13 10 5 19 8 20 28 8 18 -11 22 -11 27 1 3 10 8 7 18 -10 l13 -24 1
25 c0 14 4 21 8 15 11 -15 114 -17 106 -2 -4 7 6 1 22 -13 15 -14 23 -18 16
-8 -9 11 -10 18 -2 23 5 3 10 1 10 -4 0 -6 5 -11 11 -11 5 0 8 4 5 8 -3 5 2 9
10 9 9 0 13 -6 9 -15 -4 -12 -3 -13 10 -2 8 7 15 9 15 5 0 -4 6 -3 13 4 10 8
17 7 25 -1 8 -8 13 -7 18 5 3 9 10 14 15 11 5 -3 6 -11 2 -17 -4 -7 0 -6 10 2
9 7 17 10 17 6 0 -5 9 0 20 10 15 14 20 15 20 4 0 -12 2 -12 9 0 5 8 18 12 29
8 12 -2 23 0 26 7 3 7 5 6 5 -3 1 -8 8 -4 21 10 17 21 19 21 13 4 -6 -18 -5
-18 10 -7 9 8 21 11 27 7 5 -3 13 1 16 10 6 13 8 14 15 3 7 -10 9 -10 9 0 0 6
5 12 11 12 5 0 8 -4 5 -9 -4 -5 5 -4 18 2 13 7 22 16 19 21 -4 5 3 7 15 4 12
-4 22 -1 22 4 0 6 6 5 15 -2 13 -11 14 -10 9 6 -4 10 -3 16 1 11 5 -4 19 0 33
9 13 9 22 11 18 6 -3 -6 -1 -14 5 -18 8 -4 9 -3 5 4 -4 7 -2 12 4 12 6 0 9 4
5 9 -3 5 0 13 6 17 8 4 9 3 5 -4 -4 -7 -3 -12 3 -12 5 0 15 8 20 18 8 13 11
14 11 2 0 -11 3 -10 11 4 9 15 13 16 20 5 6 -10 9 -7 9 11 0 18 3 21 9 11 7
-11 9 -11 14 0 4 10 6 10 6 2 1 -9 7 -8 20 4 11 9 17 21 14 26 -3 5 4 4 15 -2
15 -8 23 -8 28 1 5 7 2 9 -7 4 -8 -4 -6 -1 3 7 10 8 14 18 10 23 -4 4 0 3 9
-4 13 -10 20 -8 37 7 12 10 18 21 14 25 -4 5 0 7 8 6 29 -4 41 0 34 12 -5 8
-2 9 9 5 9 -3 19 -1 23 5 5 7 2 8 -7 3 -12 -8 -12 -6 0 8 7 9 16 15 20 13 10
-5 40 32 33 40 -4 5 2 2 12 -6 13 -10 17 -10 12 -2 -4 6 -3 12 2 12 5 0 14 10
21 23 6 12 9 14 7 5 -3 -12 -1 -15 9 -11 8 3 13 9 10 13 -3 4 2 11 11 14 8 3
12 11 8 17 -4 7 -3 9 3 6 13 -8 36 17 26 27 -4 4 0 4 10 0 13 -5 16 -2 11 10
-4 9 -3 16 2 15 21 -4 34 2 34 15 0 7 10 16 21 19 15 4 20 11 15 22 -3 9 -2
13 3 10 5 -3 12 4 16 15 3 11 11 20 17 20 6 0 5 -7 -3 -17 -13 -16 -12 -17 4
-4 10 8 16 20 13 28 -3 7 1 13 9 13 7 0 17 5 21 12 5 7 3 8 -7 3 -12 -8 -12
-6 -1 8 8 9 19 15 24 14 6 -1 13 5 15 13 4 13 3 13 -6 0 -6 -8 -11 -10 -11 -5
0 23 32 56 48 50 9 -3 13 -3 9 1 -3 4 5 20 18 36 14 16 25 35 24 41 0 8 -2 8
-6 0 -2 -7 -10 -13 -16 -13 -7 0 8 18 33 40 25 22 39 40 33 40 -7 0 -13 -4
-13 -10 0 -5 -5 -10 -10 -10 -6 0 -3 11 7 24 10 13 20 24 23 24 19 -1 23 4 10
12 -10 6 -11 10 -2 10 6 0 12 6 12 14 0 8 7 17 16 20 12 4 13 10 6 19 -11 12
6 47 23 47 5 0 0 -10 -11 -22 l-19 -23 22 19 c12 10 22 21 21 25 -1 3 2 21 6
39 5 21 12 30 19 25 8 -4 7 -1 -1 9 -10 13 -10 17 3 21 9 4 12 13 8 23 -5 13
-3 15 8 9 12 -7 12 -6 1 7 -10 12 -9 18 3 28 10 8 13 20 9 34 -6 19 -5 20 11
6 11 -8 16 -9 11 -3 -4 7 -3 21 3 31 6 11 6 24 -1 36 -8 14 -8 17 2 11 9 -5
10 -2 5 15 -6 17 -4 21 6 14 10 -6 10 -3 -1 11 -8 10 -10 16 -4 12 7 -4 15 0
18 9 10 25 7 27 -11 13 -10 -7 -5 1 10 18 27 29 28 32 10 42 -11 7 -13 11 -4
11 8 0 11 7 8 20 -3 11 -1 18 4 14 10 -6 11 -3 13 43 1 18 -1 30 -4 28 -4 -2
-7 2 -7 10 0 8 4 12 8 9 4 -2 7 84 7 191 1 131 -3 193 -10 189 -5 -4 -4 4 2
17 11 19 10 24 -4 35 -10 6 -12 14 -7 15 7 3 5 14 -4 33 -14 26 -13 28 2 22
14 -6 14 -3 -3 15 -10 12 -13 19 -6 15 18 -11 15 2 -8 26 -23 25 -18 37 7 17
10 -7 7 -1 -6 13 -13 16 -21 34 -18 42 4 9 2 16 -2 16 -5 0 -12 7 -15 16 -5
14 -4 15 9 4 13 -11 14 -10 9 4 -3 9 -10 16 -14 16 -4 0 -11 7 -14 16 -6 15
-4 15 10 3 16 -13 16 -12 3 11 -8 14 -20 29 -27 33 -7 5 -9 13 -6 19 4 6 0 14
-7 19 -11 7 -11 9 -1 9 7 0 10 5 7 10 -4 6 -10 8 -15 5 -4 -3 -6 5 -2 17 4 15
2 19 -7 13 -10 -6 -11 -3 -2 13 8 16 7 23 -6 33 -14 12 -16 12 -8 0 5 -9 4
-12 -3 -7 -6 3 -9 15 -7 26 2 13 -2 20 -11 20 -8 0 -14 5 -14 11 0 5 6 7 13 3
8 -6 8 -3 -1 9 -8 9 -10 22 -6 29 6 10 3 9 -9 -1 -9 -7 -17 -12 -18 -10 -6 31
-6 38 2 34 5 -4 6 1 3 9 -3 9 -10 14 -14 11 -8 -5 -25 24 -22 38 1 4 -3 7 -9
7 -6 0 -8 9 -4 23 5 17 4 19 -4 7 -8 -11 -11 -12 -11 -2 0 8 -5 10 -12 6 -10
-6 -10 -4 0 8 11 13 8 19 -15 38 -15 12 -22 19 -16 15 9 -4 11 -1 7 10 -4 9
-9 14 -11 11 -3 -3 -11 1 -18 7 -10 9 -10 15 -1 26 8 12 8 13 -1 7 -12 -6 -17
4 -15 25 1 4 -9 5 -21 2 -16 -3 -18 -2 -9 5 11 7 11 10 -3 16 -9 3 -13 10 -10
16 4 6 -1 7 -12 3 -10 -3 -15 -3 -11 1 4 5 -4 20 -17 34 -13 14 -22 29 -19 34
3 4 1 8 -4 8 -16 0 -53 41 -46 52 4 7 0 7 -13 -1 -18 -9 -20 -7 -19 12 1 15
-4 21 -16 19 -9 -1 -19 6 -23 18 -3 11 -11 20 -17 20 -15 0 -57 47 -50 55 4 3
-2 3 -13 -1 -14 -6 -17 -4 -13 7 4 10 -1 15 -15 17 -12 0 -23 6 -25 12 -2 5
-9 10 -15 10 -7 0 -21 13 -32 29 -11 17 -21 28 -24 26 -2 -3 0 -10 5 -18 5 -7
-1 -2 -12 11 -16 18 -23 21 -29 12 -6 -9 -4 -11 5 -5 9 5 11 4 6 -4 -11 -17
-26 -3 -19 16 5 12 2 15 -10 10 -15 -6 -21 3 -18 25 0 4 -11 5 -25 2 -18 -3
-23 -1 -18 7 5 9 1 10 -14 7 -15 -4 -19 -2 -15 8 5 12 -13 19 -39 15 -5 0 -8
4 -8 10 0 5 -5 7 -10 4 -6 -3 -13 1 -16 10 -6 13 -8 14 -15 3 -7 -11 -9 -11
-9 1 0 8 -6 11 -16 7 -14 -5 -15 -4 -5 8 10 12 9 13 -9 9 -16 -4 -19 -2 -14
13 5 16 4 16 -5 4 -10 -13 -12 -13 -21 0 -8 12 -10 12 -10 -5 0 -16 -2 -17 -9
-5 -6 8 -7 18 -4 24 3 5 1 6 -5 2 -7 -4 -12 -2 -12 5 0 10 -3 10 -12 1 -15
-15 -32 -16 -23 -2 3 6 -3 10 -15 10 -14 0 -19 4 -14 13 5 8 2 7 -9 -2 -15
-12 -20 -11 -38 5 -11 10 -29 18 -40 19 -12 1 -25 8 -31 16 -8 11 -9 11 -4 -3
3 -10 1 -20 -3 -23 -13 -8 -34 22 -25 37 4 7 -2 5 -13 -5 -16 -14 -23 -15 -29
-6 -5 8 -3 10 6 4 8 -5 11 -4 7 2 -4 6 -18 8 -32 6 -14 -3 -22 -10 -18 -16 3
-6 1 -7 -5 -3 -6 4 -8 14 -5 23 4 10 2 14 -5 9 -6 -3 -14 -1 -17 4 -5 8 -14 5
-28 -7 -11 -10 -17 -13 -14 -7 4 7 -2 14 -13 17 -14 3 -18 1 -13 -6 4 -7 -6
-4 -21 7 -16 10 -25 13 -22 7 4 -6 0 -11 -8 -11 -9 0 -16 5 -16 12 0 9 -3 9
-12 0 -14 -14 -32 -16 -23 -3 5 10 -40 5 -57 -5 -4 -3 -8 1 -8 8 0 9 -3 9 -10
-2 -8 -12 -10 -12 -11 5 0 11 -3 14 -6 7 -2 -6 -10 -9 -16 -5 -7 4 -8 0 -4
-11 4 -10 3 -15 -3 -11 -6 3 -10 12 -10 19 0 7 -6 13 -14 13 -9 0 -12 -7 -9
-16 5 -13 3 -14 -7 -4 -11 10 -18 9 -33 -4 -15 -14 -18 -14 -15 -3 2 8 7 18
12 21 5 4 -5 6 -22 6 -17 -1 -28 -5 -25 -10 2 -4 10 -4 16 -1 7 4 9 3 4 -1 -4
-5 -30 -9 -58 -10 -41 -1 -49 1 -44 14 4 14 4 14 -8 1 -15 -18 -37 -24 -37
-10 0 6 5 10 12 10 6 0 8 3 5 7 -4 3 -17 -2 -29 -13 -19 -17 -21 -17 -15 -1 4
9 2 17 -3 17 -6 0 -10 -7 -10 -16 0 -8 -5 -12 -10 -9 -6 4 -7 12 -3 18 5 9 3
9 -8 1 -8 -6 -22 -14 -33 -18 -14 -5 -17 -2 -12 9 3 8 1 15 -4 15 -6 0 -10 -7
-10 -16 0 -8 -5 -12 -10 -9 -6 4 -7 12 -4 18 5 8 3 8 -7 0 -7 -7 -17 -13 -22
-13 -4 0 -5 6 -2 13 4 6 -1 3 -9 -7 -14 -18 -21 -15 -17 7 1 5 -3 6 -9 2 -6
-3 -8 -10 -5 -15 3 -5 -6 -7 -21 -6 -14 2 -30 9 -35 17 -7 11 -9 11 -9 -3z
m805 -28 c3 -5 1 -10 -4 -10 -6 0 -11 5 -11 10 0 6 2 10 4 10 3 0 8 -4 11 -10z
m-1480 -170 c-3 -5 -11 -10 -16 -10 -6 0 -7 5 -4 10 3 6 11 10 16 10 6 0 7 -4
4 -10z m-555 -464 c0 -2 -7 -7 -16 -10 -8 -3 -12 -2 -9 4 6 10 25 14 25 6z
m3470 -846 c0 -5 -2 -10 -4 -10 -3 0 -8 5 -11 10 -3 6 -1 10 4 10 6 0 11 -4
11 -10z m0 -478 c0 -5 -7 -9 -15 -9 -8 0 -12 4 -9 9 3 4 9 8 15 8 5 0 9 -4 9
-8z m-280 -726 c0 -2 -8 -10 -17 -17 -16 -13 -17 -12 -4 4 13 16 21 21 21 13z
m-2540 -616 c0 -5 -2 -10 -4 -10 -3 0 -8 5 -11 10 -3 6 -1 10 4 10 6 0 11 -4
11 -10z"/>
<path d="M11430 27230 c0 -5 5 -10 11 -10 5 0 7 5 4 10 -3 6 -8 10 -11 10 -2
0 -4 -4 -4 -10z"/>
<path d="M12130 27150 c0 -5 5 -10 11 -10 5 0 7 5 4 10 -3 6 -8 10 -11 10 -2
0 -4 -4 -4 -10z"/>
<path d="M10236 26933 c-6 -14 -5 -15 5 -6 7 7 10 15 7 18 -3 3 -9 -2 -12 -12z"/>
<path d="M5456 26707 c3 -10 9 -15 12 -12 3 3 0 11 -7 18 -10 9 -11 8 -5 -6z"/>
<path d="M6890 26409 c0 -5 -4 -8 -8 -5 -4 2 -14 1 -21 -4 -9 -5 -3 -7 17 -7
19 1 28 6 25 14 -6 16 -13 17 -13 2z"/>
<path d="M6470 26402 c0 -5 7 -9 15 -9 8 0 12 4 9 9 -3 4 -9 8 -15 8 -5 0 -9
-4 -9 -8z"/>
<path d="M6616 26402 c-3 -4 4 -9 15 -9 23 -2 25 3 4 10 -8 4 -16 3 -19 -1z"/>
<path d="M6667 26399 c7 -7 15 -10 18 -7 3 3 -2 9 -12 12 -14 6 -15 5 -6 -5z"/>
<path d="M6736 26402 c-3 -4 4 -9 15 -9 23 -2 25 3 4 10 -8 4 -16 3 -19 -1z"/>
<path d="M9473 25735 c0 -8 4 -12 9 -9 5 3 6 10 3 15 -9 13 -12 11 -12 -6z"/>
<path d="M3675 25470 c5 -13 -5 -16 -52 -18 -32 -1 -60 -7 -61 -12 -2 -6 -11
-3 -19 7 -8 10 -12 12 -8 5 5 -9 -1 -11 -19 -8 -15 3 -24 1 -21 -3 2 -5 -4
-11 -15 -14 -11 -3 -18 -1 -15 3 3 5 -3 7 -12 5 -10 -2 -22 -4 -26 -4 -5 -1
-5 -5 -2 -11 9 -14 -8 -12 -24 3 -11 10 -12 9 -6 -2 6 -11 4 -13 -8 -8 -11 4
-17 1 -17 -8 0 -8 -4 -15 -9 -15 -6 0 -8 10 -6 21 3 12 1 18 -3 15 -4 -4 -7
-13 -7 -19 0 -7 -11 -11 -24 -9 -14 2 -21 0 -17 -7 5 -7 1 -8 -10 -4 -13 5
-15 3 -9 -8 8 -12 6 -12 -8 0 -14 11 -18 11 -23 -3 -4 -10 -13 -14 -24 -11
-12 4 -24 -2 -35 -17 -14 -19 -16 -19 -11 -4 7 19 6 19 -13 2 -11 -10 -25 -15
-30 -11 -6 3 -11 2 -11 -4 0 -5 -9 -8 -21 -6 -18 4 -19 2 -7 -12 11 -14 11
-16 -1 -9 -8 5 -17 3 -22 -5 -7 -11 -9 -11 -9 -1 0 10 -4 9 -16 -3 -9 -9 -22
-14 -29 -11 -8 3 -16 -2 -19 -10 -3 -8 -9 -14 -13 -13 -20 3 -27 -2 -13 -11
11 -8 8 -9 -12 -4 -22 5 -28 3 -28 -10 0 -9 -7 -16 -15 -16 -8 0 -15 -5 -15
-11 0 -8 -6 -7 -17 2 -14 12 -16 12 -8 0 6 -11 4 -13 -10 -7 -16 6 -16 4 -4
-11 9 -11 10 -14 2 -9 -8 4 -13 2 -13 -5 0 -7 -3 -9 -6 -6 -9 9 -46 -12 -39
-23 3 -5 1 -11 -4 -14 -5 -4 -13 -1 -17 5 -5 8 -3 9 6 4 9 -5 11 -4 6 4 -10
16 -29 3 -22 -16 3 -8 1 -11 -4 -8 -6 3 -10 1 -10 -5 0 -6 -4 -8 -10 -5 -5 3
-10 -2 -10 -11 0 -10 -3 -15 -6 -11 -3 3 -16 -4 -28 -17 -11 -12 -15 -14 -8
-5 10 13 11 19 1 25 -7 4 -10 3 -5 -4 3 -6 -3 -17 -14 -25 -11 -7 -17 -17 -13
-20 6 -7 -13 -11 -31 -8 -5 1 -3 -5 4 -14 11 -13 10 -14 -5 -8 -15 5 -17 3
-12 -12 7 -16 5 -16 -10 -4 -11 9 -14 10 -9 2 4 -8 2 -13 -4 -13 -6 0 -8 -5
-4 -12 5 -8 0 -9 -14 -6 -12 4 -20 3 -17 -2 6 -10 -30 -51 -39 -43 -4 4 -4 -1
0 -11 5 -14 4 -17 -4 -12 -7 4 -12 1 -12 -9 0 -9 -5 -13 -10 -10 -6 3 -13 -1
-16 -9 -3 -9 -11 -13 -18 -9 -6 4 -4 -2 4 -12 14 -17 13 -18 -2 -13 -17 7 -33
-16 -23 -33 4 -5 -1 -6 -9 -3 -10 4 -16 1 -16 -9 0 -9 -11 -33 -25 -53 -14
-20 -25 -32 -25 -27 0 6 10 23 22 39 18 23 18 26 4 14 -11 -8 -25 -30 -33 -48
-9 -21 -18 -30 -26 -25 -7 4 -5 -2 3 -12 9 -11 10 -16 3 -11 -8 4 -13 1 -13
-9 0 -10 -5 -13 -12 -9 -9 6 -9 3 0 -9 12 -14 11 -16 -8 -12 -17 3 -19 1 -11
-9 9 -10 8 -15 -4 -20 -8 -3 -15 -13 -15 -21 0 -10 -5 -13 -12 -9 -8 5 -7 0 2
-11 8 -10 11 -16 5 -13 -5 3 -16 0 -23 -8 -10 -11 -10 -14 0 -14 9 -1 7 -5 -4
-14 -14 -10 -15 -15 -5 -25 9 -10 8 -11 -8 -5 -17 7 -18 6 -7 -8 10 -13 10
-18 1 -24 -8 -4 -9 -3 -5 4 4 7 3 12 -2 12 -6 0 -12 -7 -16 -15 -3 -8 -1 -15
5 -15 6 0 7 -5 4 -10 -4 -6 -10 -8 -15 -5 -5 3 -7 -4 -5 -16 3 -13 0 -19 -8
-16 -8 3 -12 -8 -11 -34 1 -22 -4 -43 -12 -50 -8 -6 -11 -16 -7 -22 3 -5 1 -7
-4 -4 -12 8 -26 -20 -17 -34 3 -5 -1 -9 -8 -9 -9 0 -9 -3 2 -10 10 -6 11 -10
3 -10 -7 0 -13 -9 -13 -21 0 -13 -4 -18 -12 -13 -10 6 -10 4 0 -8 9 -11 10
-18 2 -23 -6 -3 -8 -11 -5 -16 4 -5 2 -9 -2 -9 -5 0 -9 -20 -8 -44 0 -35 -3
-42 -13 -34 -10 9 -11 6 -2 -16 6 -17 7 -34 1 -44 -6 -11 -6 -24 0 -35 8 -13
6 -15 -6 -11 -8 3 -13 9 -11 13 3 4 1 13 -3 20 -5 7 -8 -104 -8 -247 1 -218 3
-259 15 -255 11 5 11 7 0 15 -10 8 -10 9 1 6 8 -2 15 -14 16 -26 1 -18 -2 -21
-19 -16 l-21 6 21 -15 c14 -11 20 -25 18 -46 -1 -23 2 -31 14 -31 13 0 12 -3
-4 -16 -10 -8 -13 -13 -6 -9 6 3 12 2 12 -4 0 -5 -5 -11 -12 -13 -7 -3 -5 -7
6 -11 12 -5 15 -3 10 6 -4 6 -3 9 1 4 12 -11 17 -49 5 -42 -5 3 -3 -6 5 -21 7
-15 11 -33 8 -42 -4 -10 -2 -13 5 -8 12 7 13 1 16 -49 1 -13 7 -19 19 -19 10
1 17 -5 17 -16 0 -10 7 -21 16 -24 8 -3 13 -2 10 3 -3 5 1 12 10 15 8 3 12 2
9 -4 -3 -6 -2 -10 3 -10 6 0 13 -7 16 -16 3 -8 2 -12 -3 -9 -5 3 -12 1 -16 -5
-3 -6 3 -10 16 -10 19 0 20 -2 8 -17 -7 -10 -10 -15 -5 -11 4 4 14 2 21 -5 9
-9 8 -15 -4 -27 -9 -8 -12 -12 -7 -7 6 4 15 7 21 7 5 0 -3 -9 -20 -20 -25 -17
-27 -20 -10 -21 19 0 19 -1 1 -8 -18 -7 -18 -8 -2 -14 9 -4 15 -11 11 -16 -3
-6 3 -14 12 -20 17 -10 17 -10 -2 -12 -17 -1 -16 -2 5 -9 14 -4 19 -8 11 -9
-11 -1 -10 -5 5 -17 10 -8 14 -13 8 -10 -6 3 -11 -1 -11 -9 0 -8 8 -12 20 -10
16 4 17 2 5 -12 -7 -9 -8 -14 -2 -10 11 6 30 -36 26 -55 -1 -4 4 -5 12 -2 8 3
17 0 22 -7 5 -8 3 -10 -7 -4 -8 4 -2 -4 13 -17 21 -19 25 -27 15 -37 -9 -10
-8 -11 7 -5 16 6 18 4 13 -10 -4 -9 -3 -15 1 -13 7 4 53 -37 52 -48 -1 -26 1
-29 10 -15 8 12 10 11 10 -6 0 -11 10 -29 23 -40 22 -19 22 -19 5 2 -10 11
-18 24 -18 29 0 4 10 -5 23 -21 12 -16 21 -32 20 -35 -1 -4 7 -15 19 -25 12
-11 18 -13 13 -5 -5 10 -4 12 3 7 7 -4 12 -13 12 -21 0 -8 5 -17 12 -21 7 -5
8 -3 3 6 -6 9 -4 11 4 6 7 -5 10 -15 7 -23 -4 -11 -1 -13 14 -8 11 4 20 3 19
-2 -1 -4 -1 -15 0 -23 1 -13 2 -13 11 0 8 12 10 11 10 -8 0 -12 5 -21 13 -20
6 2 11 -3 9 -11 -3 -12 -1 -12 15 -1 10 8 15 11 11 6 -9 -11 13 -33 37 -38 11
-2 25 -13 31 -26 6 -12 14 -19 17 -15 4 3 7 1 7 -5 0 -7 7 -12 16 -12 9 0 12
-5 8 -12 -5 -8 0 -7 11 2 11 9 16 10 11 3 -4 -8 -2 -13 4 -13 6 0 8 -4 5 -10
-5 -9 8 -13 40 -13 6 0 19 -9 30 -20 11 -11 14 -16 6 -12 -10 5 -12 4 -7 -4 4
-6 12 -9 17 -6 5 3 19 -3 31 -14 17 -17 24 -18 37 -8 12 10 13 9 6 -2 -6 -11
-4 -13 10 -7 15 5 16 4 5 -9 -11 -13 -10 -14 4 -9 9 4 18 0 22 -9 5 -13 23
-18 83 -19 18 0 21 -2 10 -9 -11 -7 -11 -9 4 -9 9 0 17 -4 17 -10 0 -5 5 -10
11 -10 5 0 7 6 4 13 -4 6 1 3 9 -7 11 -14 16 -15 16 -6 0 9 5 8 16 -6 8 -10
13 -14 10 -7 -9 16 21 10 44 -10 14 -11 20 -13 20 -4 0 8 4 7 10 -3 7 -11 12
-12 18 -4 5 9 11 8 20 -2 10 -10 10 -14 1 -14 -7 0 -9 -3 -6 -6 4 -4 13 -1 22
6 12 10 15 10 15 -4 0 -19 16 -21 26 -4 5 7 3 8 -6 3 -9 -6 -11 -4 -5 5 6 10
10 10 20 -3 7 -10 16 -13 25 -7 8 5 21 5 31 0 9 -5 19 -6 23 -3 12 12 6 -13
-6 -27 -11 -12 -10 -12 3 -2 12 9 19 9 29 -1 8 -8 11 -8 7 -1 -9 15 20 27 29
12 5 -7 2 -8 -6 -3 -9 5 -11 4 -6 -4 6 -9 11 -9 21 -1 10 8 15 8 20 0 5 -8 11
-8 21 1 8 6 14 7 14 2 0 -6 31 -10 72 -9 44 1 76 -4 84 -11 9 -10 13 -8 17 8
5 18 8 19 28 7 18 -11 22 -11 27 1 3 10 8 7 18 -10 l13 -24 1 25 c0 15 3 20 8
14 4 -7 22 -10 40 -8 17 2 32 -1 32 -6 0 -5 -8 -7 -18 -5 -10 2 -25 0 -32 -5
-7 -4 5 -7 28 -6 23 1 45 6 49 11 4 4 2 5 -4 1 -7 -4 -13 -2 -13 4 0 6 10 8
26 4 20 -5 25 -4 19 6 -6 9 -3 10 13 1 29 -16 75 -15 66 2 -6 9 -5 9 7 0 8 -7
33 -11 54 -9 22 1 51 -1 64 -6 20 -7 22 -6 17 9 -4 12 1 10 16 -7 12 -14 19
-18 15 -8 -7 19 14 30 33 18 8 -5 19 -6 24 -2 16 9 46 10 46 0 0 -5 9 -4 19 2
26 13 34 13 25 -2 -4 -7 2 -4 14 6 12 11 22 16 22 11 0 -4 8 -1 18 6 16 13 16
13 2 -5 -14 -18 -14 -19 6 -8 16 8 24 8 34 -1 10 -10 10 -8 1 10 -9 17 -8 21
4 19 8 -1 18 -6 22 -11 4 -4 2 -5 -6 0 -9 5 -12 4 -7 -3 8 -13 36 -5 36 10 0
6 6 6 14 -1 11 -9 16 -9 22 0 5 8 3 9 -6 4 -8 -5 -11 -4 -7 3 8 12 25 11 46
-2 10 -6 12 -5 7 2 -4 7 -2 12 4 12 6 0 8 6 4 13 -6 10 -4 10 7 0 15 -15 33
-18 25 -5 -3 5 1 9 9 9 8 0 15 -5 15 -11 0 -6 4 -4 9 4 6 8 7 18 4 24 -3 5 -1
6 5 2 7 -4 18 -4 25 1 16 11 29 11 49 1 13 -6 16 -4 13 11 -3 15 1 18 12 14 8
-3 19 0 24 8 7 12 9 12 9 0 0 -11 3 -11 15 -1 8 6 19 9 25 5 7 -4 14 2 17 15
4 16 8 18 14 8 7 -10 9 -8 9 6 0 20 0 20 15 0 13 -16 14 -16 9 -1 -4 12 -1 17
11 17 9 0 14 4 11 9 -3 4 4 8 17 7 17 -1 21 4 19 19 -2 11 1 16 5 10 11 -14
33 -17 33 -4 0 5 6 7 13 3 7 -5 6 0 -3 11 -10 12 -10 16 -2 11 7 -4 20 -2 29
6 14 11 16 11 9 -2 -4 -9 -2 -8 7 2 8 10 18 14 22 10 5 -4 5 1 2 11 -6 15 -4
16 14 6 16 -8 20 -8 15 0 -4 6 2 15 14 19 12 4 21 11 21 15 -1 4 2 6 7 5 4 -2
6 -7 4 -11 -1 -5 2 -6 7 -2 6 3 7 13 4 22 -4 10 -2 14 4 10 6 -4 21 5 33 20
12 16 19 22 15 16 -4 -9 -1 -11 9 -7 9 3 14 10 11 14 -3 5 4 12 16 15 13 5 18
12 14 22 -5 14 -3 14 12 2 9 -8 14 -9 11 -3 -9 13 48 67 62 59 6 -4 10 -3 9 2
-3 17 1 33 9 32 19 -3 25 2 12 11 -13 8 -12 10 5 11 11 1 23 1 26 1 4 -1 6 6
5 16 0 9 4 16 11 15 6 -1 17 11 24 27 9 19 16 25 21 17 5 -8 8 -6 8 7 0 13 5
16 18 11 14 -5 15 -4 5 6 -18 18 -16 30 2 23 11 -5 13 -2 9 10 -5 12 0 19 15
23 11 3 18 9 15 14 -3 5 0 9 5 9 6 0 11 9 11 21 0 13 4 18 12 13 8 -5 9 0 5
15 -5 19 -3 20 11 9 12 -10 14 -10 8 0 -4 6 -2 12 3 12 6 0 11 6 11 14 0 8 6
17 13 19 10 4 10 6 0 6 -7 1 -13 5 -13 11 0 5 7 6 17 3 11 -4 14 -3 9 5 -4 7
-2 12 4 12 6 0 8 5 5 10 -3 6 2 10 12 11 10 0 13 3 6 6 -20 8 -15 23 8 23 11
0 17 5 14 10 -4 6 -11 7 -17 4 -7 -4 -8 -2 -4 5 4 6 12 9 17 6 5 -4 9 1 9 10
0 9 5 13 11 9 8 -4 8 0 0 15 -9 16 -9 20 2 15 11 -4 14 2 12 21 -3 20 -1 24
10 15 10 -8 12 -4 9 21 -3 24 -1 30 11 26 9 -4 12 -1 9 7 -3 7 2 19 11 26 11
9 12 16 5 25 -8 9 -6 14 5 19 9 3 13 10 10 16 -3 5 -2 10 3 10 6 0 8 10 4 22
-3 13 -1 19 6 15 6 -4 9 0 7 10 -1 10 2 27 8 38 6 11 10 26 8 34 -1 8 2 10 10
5 8 -4 10 -3 5 4 -4 6 -1 22 5 34 11 21 11 22 -4 10 -13 -11 -15 -10 -10 7 3
12 9 18 14 15 5 -3 9 -2 10 3 4 46 3 65 -4 70 -4 3 0 14 10 26 13 14 14 18 3
13 -9 -4 -8 -2 3 7 18 15 24 32 7 22 -5 -3 -10 -2 -10 4 0 5 5 13 10 16 12 8
9 37 -5 47 -6 5 -6 8 2 8 8 0 12 49 12 176 1 163 -1 176 -17 170 -15 -5 -15
-4 1 8 18 14 18 15 0 25 -14 8 -15 10 -3 11 17 0 24 36 9 45 -5 3 -6 -1 -3 -9
3 -9 2 -16 -4 -16 -12 0 -11 18 2 39 6 10 5 12 -2 7 -15 -9 -16 6 -1 21 8 8 7
13 -2 18 -8 6 -10 4 -4 -5 5 -8 4 -11 -2 -7 -6 4 -8 19 -5 33 4 20 2 25 -8 19
-9 -5 -10 -2 -5 14 4 13 2 21 -5 21 -6 0 -8 5 -5 10 4 6 1 18 -7 27 -10 13
-10 17 0 20 6 3 12 9 12 14 0 6 -4 7 -10 4 -5 -3 -10 3 -10 15 0 14 -4 19 -12
14 -9 -5 -9 -3 1 9 11 14 11 18 -5 24 -16 6 -16 7 2 14 17 7 17 8 1 8 -10 1
-15 6 -12 11 3 6 0 10 -7 10 -9 0 -9 3 2 10 13 8 13 10 -2 10 -11 0 -15 5 -12
15 4 8 1 15 -5 15 -8 0 -9 5 -3 17 12 20 -14 67 -30 57 -6 -4 -7 2 -3 16 6 18
4 22 -8 17 -11 -4 -13 0 -9 15 4 16 2 19 -9 13 -11 -7 -11 -5 1 10 8 10 11 16
5 13 -5 -3 -16 0 -23 8 -9 10 -9 14 -1 14 6 0 3 8 -8 18 -10 9 -13 13 -6 8 21
-14 15 1 -12 28 -14 14 -25 32 -25 41 0 9 -4 13 -10 10 -5 -3 -10 1 -10 10 0
10 -5 13 -12 9 -9 -5 -9 -2 1 9 12 15 11 17 -2 17 -9 0 -19 5 -23 12 -4 7 -3
8 4 4 7 -4 12 -2 12 3 0 10 -14 15 -33 12 -5 -1 -5 3 -2 10 4 6 -2 17 -14 26
-12 8 -20 20 -19 26 4 21 -25 55 -40 49 -10 -3 -13 -1 -8 6 4 7 1 15 -8 18 -9
3 -16 12 -16 19 0 8 -5 17 -12 21 -7 5 -8 3 -3 -7 5 -8 -1 -5 -14 5 -12 11
-19 26 -16 34 3 8 -3 16 -15 19 -11 3 -17 10 -13 17 3 6 3 8 -2 4 -10 -10 -37
11 -29 23 3 5 -3 6 -12 2 -14 -5 -16 -3 -11 11 4 10 3 15 -3 11 -6 -3 -10 -1
-10 5 0 6 -4 8 -10 5 -5 -3 -10 1 -10 9 0 9 -6 16 -14 16 -8 0 -18 5 -22 12
-4 7 -3 8 4 4 18 -11 14 0 -5 15 -11 10 -14 10 -9 2 4 -7 3 -13 -2 -13 -6 0
-13 7 -16 16 -3 8 -10 13 -15 10 -5 -3 -23 11 -41 32 -17 20 -29 31 -25 25 3
-7 1 -13 -4 -13 -10 0 -15 14 -12 33 1 5 -3 6 -9 2 -5 -3 -10 -2 -10 4 0 5 -9
8 -19 6 -15 -3 -18 0 -14 13 6 15 4 15 -9 4 -13 -10 -18 -10 -24 -1 -5 8 -3 9
6 4 9 -6 11 -4 6 4 -5 7 -15 10 -23 7 -8 -3 -12 -2 -10 2 3 4 -1 12 -8 19 -11
10 -15 10 -18 0 -4 -9 -6 -9 -6 1 -1 7 -5 10 -11 7 -5 -3 -15 3 -22 14 -9 15
-16 17 -25 9 -10 -8 -15 -4 -23 16 -10 29 -26 37 -16 9 4 -12 -1 -9 -15 7 -11
14 -18 19 -14 13 3 -7 1 -13 -4 -13 -6 0 -11 8 -11 18 0 14 -2 15 -10 2 -5 -8
-10 -10 -10 -5 0 6 -9 16 -21 23 -12 8 -18 9 -15 4 3 -6 -1 -12 -9 -15 -9 -4
-12 -1 -8 9 3 8 -1 14 -11 14 -9 0 -16 5 -16 11 0 8 -5 8 -15 -1 -12 -10 -16
-9 -22 6 -9 21 -33 30 -33 13 0 -6 -7 -4 -15 5 -8 8 -24 13 -34 11 -11 -2 -22
3 -25 11 -4 10 -11 11 -31 4 -20 -7 -25 -6 -25 5 0 8 -5 15 -11 15 -5 0 -7 -6
-3 -12 5 -8 0 -7 -11 2 -14 11 -19 12 -22 3 -4 -10 -8 -9 -19 2 -8 8 -22 11
-31 8 -12 -5 -14 -3 -8 8 7 11 5 11 -10 -1 -14 -11 -17 -12 -10 -1 6 11 1 13
-24 9 -17 -2 -31 -1 -31 3 0 5 -7 6 -15 3 -8 -4 -23 0 -32 7 -12 10 -15 10 -9
2 9 -16 -6 -17 -22 -1 -9 9 -15 9 -23 1 -6 -6 -18 -9 -27 -6 -11 5 -13 2 -7
-6 6 -10 3 -11 -14 -1 -12 6 -19 16 -16 23 4 7 1 5 -7 -3 -14 -16 -88 -22 -88
-7 0 5 -8 3 -17 -4 -15 -12 -16 -12 -10 4 3 9 2 17 -3 17 -6 0 -10 -7 -10 -16
0 -8 -5 -12 -10 -9 -6 4 -7 12 -3 18 5 9 3 9 -8 1 -8 -6 -22 -14 -33 -18 -14
-5 -17 -2 -12 9 3 8 1 15 -4 15 -6 0 -10 -7 -10 -16 0 -8 -5 -12 -10 -9 -6 4
-7 12 -3 18 5 9 3 9 -8 1 -25 -19 -52 -26 -46 -11 6 15 -29 21 -38 6 -3 -5 1
-6 9 -3 9 3 16 2 16 -3 0 -16 -64 -9 -77 7 -10 12 -14 13 -25 2 -11 -11 -10
-12 5 -7 9 4 17 3 17 -2 0 -5 -15 -8 -34 -8 -19 0 -32 3 -30 6 2 4 -3 10 -12
13 -10 4 -13 2 -8 -6 5 -8 2 -9 -9 -5 -12 4 -17 1 -18 -11 0 -14 -2 -14 -9 3
-6 14 -9 15 -10 5 -1 -10 -4 -9 -10 5 -6 14 -9 15 -9 5 -1 -21 -42 -21 -59 -1
-11 14 -11 14 -7 1z m1782 -536 c-3 -3 -12 -4 -19 -1 -8 3 -5 6 6 6 11 1 17
-2 13 -5z m118 -134 c3 -6 -1 -7 -9 -4 -18 7 -21 14 -7 14 6 0 13 -4 16 -10z
m235 -395 c7 -9 8 -15 2 -15 -5 0 -12 7 -16 15 -3 8 -4 15 -2 15 2 0 9 -7 16
-15z m-3726 -531 c3 -8 2 -12 -4 -9 -6 3 -10 10 -10 16 0 14 7 11 14 -7z m917
-1681 c13 -16 12 -17 -3 -4 -10 7 -18 15 -18 17 0 8 8 3 21 -13z m89 -43 c0
-5 -2 -10 -4 -10 -3 0 -8 5 -11 10 -3 6 -1 10 4 10 6 0 11 -4 11 -10z m1820
-10 c0 -5 -2 -10 -4 -10 -3 0 -8 5 -11 10 -3 6 -1 10 4 10 6 0 11 -4 11 -10z"/>
<path d="M4186 25468 c3 -5 10 -6 15 -3 13 9 11 12 -6 12 -8 0 -12 -4 -9 -9z"/>
<path d="M5021 25273 c-1 -17 16 -25 25 -12 4 7 3 9 -4 5 -5 -3 -13 0 -15 6
-4 9 -6 10 -6 1z"/>
<path d="M9473 25265 c0 -8 4 -12 9 -9 5 3 6 10 3 15 -9 13 -12 11 -12 -6z"/>
<path d="M5240 25126 c0 -2 7 -9 15 -16 9 -7 15 -8 15 -2 0 5 -7 12 -15 16 -8
3 -15 4 -15 2z"/>
<path d="M9540 24980 c-13 -8 -12 -10 3 -10 9 0 17 5 17 10 0 12 -1 12 -20 0z"/>
<path d="M13005 24451 c-3 -5 -2 -12 3 -15 5 -3 9 1 9 9 0 17 -3 19 -12 6z"/>
<path d="M2155 24320 c-3 -5 -2 -10 4 -10 5 0 13 5 16 10 3 6 2 10 -4 10 -5 0
-13 -4 -16 -10z"/>
<path d="M10030 24196 c0 -2 7 -7 16 -10 8 -3 12 -2 9 4 -6 10 -25 14 -25 6z"/>
<path d="M11491 23744 c0 -11 3 -14 6 -6 3 7 2 16 -1 19 -3 4 -6 -2 -5 -13z"/>
<path d="M11246 23738 c3 -5 10 -6 15 -3 13 9 11 12 -6 12 -8 0 -12 -4 -9 -9z"/>
<path d="M11285 23739 c-3 -4 2 -6 10 -5 21 3 28 13 10 13 -9 0 -18 -4 -20 -8z"/>
<path d="M11598 23738 c-9 -5 -6 -7 9 -5 12 2 25 6 28 8 8 9 -23 6 -37 -3z"/>
<path d="M10848 23364 c-2 -1 -25 -5 -53 -8 -123 -16 -184 -42 -349 -151 -123
-81 -163 -113 -293 -230 -49 -44 -114 -102 -145 -128 -39 -34 -66 -71 -93
-124 -21 -41 -78 -125 -127 -186 -105 -132 -97 -122 -195 -262 -102 -145 -221
-265 -305 -305 -65 -32 -81 -34 -298 -44 -85 -4 -172 -19 -280 -46 -86 -21
-159 -35 -265 -50 -38 -6 -106 -20 -150 -31 -44 -11 -90 -23 -102 -25 -104
-20 -470 -147 -571 -198 -37 -19 -96 -45 -132 -58 -36 -14 -97 -37 -135 -51
-39 -15 -93 -43 -120 -62 -188 -133 -242 -157 -347 -157 -105 -1 -155 22 -308
136 -79 59 -152 94 -290 136 -113 35 -249 87 -372 144 -195 89 -388 119 -568
86 -231 -41 -439 -265 -475 -508 -20 -133 -9 -500 19 -692 11 -68 44 -203 60
-242 20 -46 53 -182 60 -243 3 -27 8 -68 11 -90 11 -77 11 -188 1 -223 -15
-50 -64 -98 -111 -110 -22 -6 -69 -13 -105 -17 -83 -7 -92 -9 -107 -18 -7 -5
-13 -6 -13 -3 0 8 -102 -48 -180 -99 -129 -84 -227 -143 -281 -170 -58 -29
-179 -107 -218 -140 -13 -11 -80 -83 -150 -160 -69 -76 -142 -156 -161 -176
-120 -124 -190 -213 -237 -299 -17 -30 -50 -91 -74 -135 -23 -44 -74 -127
-112 -183 -38 -57 -100 -170 -139 -250 -83 -175 -92 -193 -148 -297 -49 -92
-196 -316 -237 -361 -89 -98 -142 -224 -110 -263 10 -12 9 -13 -2 -6 -11 6
-12 5 -5 -6 5 -8 10 -25 12 -39 6 -47 52 -126 104 -180 46 -48 239 -187 293
-212 11 -5 29 -14 40 -21 93 -57 154 -90 240 -131 55 -26 150 -75 210 -109
137 -76 165 -89 240 -115 90 -30 101 -32 245 -47 36 -4 74 -9 85 -11 97 -19
430 -24 588 -10 142 13 217 -27 272 -145 27 -59 31 -95 40 -329 2 -69 7 -141
10 -160 2 -19 7 -53 10 -75 3 -23 8 -51 10 -63 3 -12 7 -31 9 -42 5 -19 31
-238 41 -335 3 -37 11 -141 20 -295 12 -187 17 -204 105 -404 72 -165 93 -245
94 -366 1 -89 -9 -203 -18 -219 -2 -3 -7 -27 -11 -51 -10 -67 -29 -121 -99
-270 -77 -162 -90 -218 -101 -425 -5 -107 -7 -135 -22 -315 -9 -108 -8 -368 1
-440 4 -30 9 -73 12 -95 2 -22 6 -56 9 -75 3 -19 7 -57 10 -85 13 -119 42
-195 224 -598 44 -98 94 -201 112 -230 30 -50 156 -227 169 -237 3 -3 41 -58
84 -123 82 -122 130 -178 205 -236 24 -19 60 -56 81 -83 36 -45 48 -77 78
-198 14 -60 8 -245 -12 -359 -26 -146 -29 -185 -28 -341 0 -146 9 -353 15
-400 19 -124 27 -154 89 -305 88 -216 201 -416 318 -560 31 -38 73 -99 93
-135 51 -94 95 -140 221 -235 61 -46 131 -103 156 -126 133 -123 235 -194 445
-309 33 -18 98 -55 145 -83 129 -76 137 -80 247 -126 56 -24 144 -68 195 -98
129 -76 195 -106 263 -118 17 -2 41 -7 55 -10 13 -2 42 -7 65 -10 134 -19 333
-69 475 -120 106 -38 291 -87 385 -101 11 -2 47 -8 80 -13 33 -6 76 -13 95
-15 19 -3 46 -7 60 -10 60 -11 177 -29 205 -31 16 -1 48 -5 70 -8 84 -13 131
-20 150 -22 11 -2 43 -7 70 -11 28 -4 102 -6 165 -5 329 9 395 3 630 -57 110
-28 231 -54 320 -68 71 -11 262 -65 318 -90 95 -43 258 -94 347 -109 191 -33
248 -36 610 -35 182 0 364 2 405 4 142 9 309 23 360 32 89 14 259 36 312 39
161 10 224 20 368 56 85 22 172 41 193 44 21 3 48 7 60 10 22 4 92 14 154 20
82 9 164 23 233 39 14 3 38 8 53 10 64 11 142 39 231 85 52 26 132 58 177 71
168 44 318 100 529 198 19 9 69 28 110 42 96 32 133 55 213 134 56 55 175 146
191 146 12 0 115 67 186 121 41 31 85 61 96 67 83 43 196 56 339 37 70 -8 132
-9 380 -4 92 2 159 -2 230 -15 55 -10 142 -17 195 -17 52 0 142 0 200 0 463
-3 2118 0 2209 3 135 5 219 -14 341 -75 66 -33 196 -168 278 -287 110 -161
213 -272 362 -388 47 -37 145 -115 219 -175 141 -114 231 -171 321 -205 30
-12 105 -39 165 -62 152 -57 303 -107 345 -114 19 -3 46 -8 60 -11 14 -3 45
-8 70 -11 25 -3 56 -7 70 -10 88 -17 763 -24 1050 -11 418 19 428 21 670 112
112 42 193 70 239 81 9 2 43 10 77 18 34 8 74 17 89 20 83 15 141 29 150 36 6
4 28 13 50 20 22 7 81 32 130 55 50 23 115 50 145 59 30 10 64 22 75 27 12 6
27 11 35 13 8 2 22 6 30 9 8 4 52 19 96 36 45 16 113 47 150 68 38 22 114 63
169 90 110 55 145 75 220 121 114 71 174 102 255 134 62 24 129 64 248 148 89
63 188 131 218 150 31 19 104 79 162 134 96 88 220 186 236 186 11 0 161 106
205 145 25 22 81 75 125 119 93 90 214 199 301 271 33 27 71 59 85 72 49 43
177 148 196 160 75 49 235 150 314 199 125 77 228 144 293 190 80 58 247 231
300 311 100 153 220 421 262 586 13 51 31 118 40 150 21 78 24 157 9 242 -25
132 -28 160 -28 245 -1 106 4 135 48 288 20 67 40 148 45 180 6 31 13 68 16
82 5 24 8 64 20 312 3 64 7 125 9 135 14 70 20 183 21 418 1 149 6 302 10 340
11 84 13 614 2 705 -13 124 -35 283 -43 325 -2 11 -7 40 -9 65 -3 25 -8 52
-10 60 -2 8 -7 38 -10 65 -3 28 -10 75 -15 105 -5 30 -12 78 -15 105 -25 232
-59 355 -145 540 -39 83 -93 252 -135 425 -17 70 -46 154 -75 215 -26 55 -55
123 -65 150 -27 75 -60 137 -141 267 -41 65 -94 159 -120 210 -67 134 -110
205 -168 273 -28 33 -53 62 -56 65 -3 3 -25 30 -50 60 -25 30 -47 57 -50 60
-15 14 -98 117 -106 131 -10 18 -53 70 -172 207 -79 91 -82 96 -117 217 -16
54 -50 126 -105 220 -45 77 -114 201 -152 275 -39 74 -83 153 -99 175 -50 72
-303 452 -354 532 -74 117 -231 322 -320 417 -16 18 -51 57 -76 87 -26 30 -75
87 -109 127 -34 40 -94 101 -134 135 -65 57 -94 87 -199 203 -21 23 -66 55
-102 72 -56 28 -136 86 -202 147 -27 25 -36 31 -98 78 -27 20 -54 40 -60 45
-5 4 -111 75 -235 157 -124 83 -227 152 -230 155 -14 16 -126 82 -210 124 -52
27 -156 83 -230 126 -185 106 -202 114 -339 160 -66 23 -141 52 -168 66 -26
13 -51 24 -54 24 -4 0 -24 8 -45 17 -22 9 -41 17 -44 18 -3 0 -18 5 -35 12
-16 6 -64 24 -105 39 -41 14 -95 36 -120 47 -74 33 -163 65 -195 70 -67 11
-169 42 -249 76 -27 12 -65 26 -85 30 -20 5 -88 22 -151 39 -63 16 -149 35
-190 42 -84 13 -252 63 -310 91 -22 11 -45 19 -53 19 -8 0 -34 7 -58 16 -24 8
-51 17 -59 19 -47 12 -162 35 -196 40 -21 3 -49 8 -60 10 -12 3 -64 7 -115 10
-52 3 -116 7 -144 10 -27 3 -77 7 -110 10 -33 3 -78 7 -100 9 -22 3 -76 7
-120 11 -44 3 -96 8 -115 11 -19 3 -55 7 -80 10 -25 2 -70 9 -100 14 -30 5
-127 21 -215 35 -88 14 -167 27 -175 30 -8 2 -37 7 -65 11 -27 3 -52 8 -55 9
-3 2 -44 9 -90 15 -47 6 -96 13 -110 15 -57 9 -130 16 -220 21 -120 7 -817 6
-1100 -2 -118 -3 -233 -6 -255 -6 -22 -1 -98 2 -170 7 -160 10 -238 10 -380 0
-137 -10 -159 -10 -265 0 -47 4 -101 9 -120 11 -47 4 -699 3 -775 -1 -98 -6
-227 -16 -260 -21 -16 -3 -41 -6 -55 -8 -22 -3 -82 -13 -130 -21 -8 -1 -40 -6
-70 -10 -30 -3 -66 -8 -80 -10 -14 -2 -47 -6 -75 -10 -59 -6 -99 -12 -140 -18
-16 -3 -64 -10 -105 -17 -41 -6 -106 -18 -145 -26 -38 -9 -85 -18 -104 -20
-19 -3 -37 -6 -41 -9 -4 -2 -21 -7 -38 -10 -65 -11 -88 -15 -112 -21 -58 -13
-202 -16 -243 -4 -117 34 -123 177 -12 325 29 38 80 141 89 180 29 115 36 178
36 315 0 140 -5 168 -40 244 -41 86 -114 121 -268 131 -232 14 -305 30 -402
87 -36 21 -300 129 -380 154 -25 8 -54 19 -65 24 -28 13 -207 70 -220 70 -6 0
-42 15 -80 33 -39 19 -106 46 -150 61 -44 15 -89 31 -100 36 -44 19 -92 24
-330 35 -55 2 -149 7 -210 12 -216 14 -747 7 -875 -12 -14 -2 -47 -6 -74 -10
-28 -3 -82 -13 -120 -21 -174 -36 -295 -6 -350 89 -14 23 -39 87 -56 142 -17
55 -47 141 -67 190 -45 113 -73 193 -79 225 -9 50 -46 174 -62 209 -28 61
-158 253 -219 321 -139 157 -209 210 -283 212 -17 1 -30 4 -30 7 0 6 -97 11
-102 5z"/>
<path d="M2740 22336 c0 -2 9 -6 20 -9 11 -3 18 -1 14 4 -5 9 -34 13 -34 5z"/>
<path d="M4746 22075 c-11 -8 -15 -15 -9 -15 7 0 15 5 18 10 4 6 11 7 17 4 7
-4 8 -2 4 4 -9 14 -7 15 -30 -3z"/>
<path d="M3260 22071 c0 -6 4 -13 10 -16 6 -3 7 1 4 9 -7 18 -14 21 -14 7z"/>
<path d="M3810 21991 c0 -6 4 -13 10 -16 6 -3 7 1 4 9 -7 18 -14 21 -14 7z"/>
<path d="M4290 21996 c0 -2 8 -10 18 -17 15 -13 16 -12 3 4 -13 16 -21 21 -21
13z"/>
<path d="M4340 21996 c0 -2 8 -10 18 -17 15 -13 16 -12 3 4 -13 16 -21 21 -21
13z"/>
<path d="M4030 21979 c0 -5 5 -7 10 -4 6 3 10 8 10 11 0 2 -4 4 -10 4 -5 0
-10 -5 -10 -11z"/>
</g>
</svg>
